<svg width="100" height="36" viewBox="0 0 137 36" fill="none" xmlns="http://www.w3.org/2000/svg">
<path d="M0 10C0 4.47715 4.47715 0 10 0H26C31.5228 0 36 4.47715 36 10V26C36 31.5228 31.5228 36 26 36H10C4.47715 36 0 31.5228 0 26V10Z" fill="url(#paint0_linear)"/>
<path fill-rule="evenodd" clip-rule="evenodd" d="M20.8504 25.0229C20.8504 25.765 21.8128 26.0564 22.2244 25.4389L27.673 17.266C28.0053 16.7676 27.648 16.1 27.049 16.1H22.7504V10.9771C22.7504 10.235 21.788 9.94363 21.3764 10.5611L15.9277 18.734C15.5955 19.2324 15.9528 19.9 16.5518 19.9H20.8504V25.0229Z" fill="white"/>
<path opacity="0.3" fill-rule="evenodd" clip-rule="evenodd" d="M9.44883 12.7746C9.44883 11.9876 10.0868 11.3496 10.8738 11.3496H15.6238C16.4108 11.3496 17.0488 11.9876 17.0488 12.7746C17.0488 13.5616 16.4108 14.1996 15.6238 14.1996H10.8738C10.0868 14.1996 9.44883 13.5616 9.44883 12.7746ZM9.44883 24.1746C9.44883 23.3876 10.0868 22.7496 10.8738 22.7496H15.6238C16.4108 22.7496 17.0488 23.3876 17.0488 24.1746C17.0488 24.9616 16.4108 25.5996 15.6238 25.5996H10.8738C10.0868 25.5996 9.44883 24.9616 9.44883 24.1746ZM8.97383 17.0496C8.18682 17.0496 7.54883 17.6876 7.54883 18.4746C7.54883 19.2616 8.18682 19.8996 8.97383 19.8996H12.7738C13.5608 19.8996 14.1988 19.2616 14.1988 18.4746C14.1988 17.6876 13.5608 17.0496 12.7738 17.0496H8.97383Z" fill="white"/>
<defs>
<linearGradient id="paint0_linear" x1="36" y1="0" x2="0" y2="36" gradientUnits="userSpaceOnUse">
<stop stop-color="#D665FF"/>
<stop offset="1" stop-color="#4C6FFF"/>
</linearGradient>
<linearGradient id="paint1_linear" x1="112.639" y1="9" x2="103.336" y2="42.4093" gradientUnits="userSpaceOnUse">
<stop stop-color="#D665FF"/>
<stop offset="1" stop-color="#4C6FFF"/>
</linearGradient>
<linearGradient id="paint2_linear" x1="112.639" y1="9" x2="103.336" y2="42.4093" gradientUnits="userSpaceOnUse">
<stop stop-color="#D665FF"/>
<stop offset="1" stop-color="#4C6FFF"/>
</linearGradient>
<linearGradient id="paint3_linear" x1="112.639" y1="9" x2="103.336" y2="42.4093" gradientUnits="userSpaceOnUse">
<stop stop-color="#D665FF"/>
<stop offset="1" stop-color="#4C6FFF"/>
</linearGradient>
<linearGradient id="paint4_linear" x1="112.639" y1="9" x2="103.336" y2="42.4093" gradientUnits="userSpaceOnUse">
<stop stop-color="#D665FF"/>
<stop offset="1" stop-color="#4C6FFF"/>
</linearGradient>
<linearGradient id="paint5_linear" x1="112.639" y1="9" x2="103.336" y2="42.4093" gradientUnits="userSpaceOnUse">
<stop stop-color="#D665FF"/>
<stop offset="1" stop-color="#4C6FFF"/>
</linearGradient>
<linearGradient id="paint6_linear" x1="112.639" y1="9" x2="103.336" y2="42.4093" gradientUnits="userSpaceOnUse">
<stop stop-color="#D665FF"/>
<stop offset="1" stop-color="#4C6FFF"/>
</linearGradient>
</defs>
</svg>
